<svg id="visual" viewBox="0 0 960 540" width="960" height="540" xmlns="http://www.w3.org/2000/svg" xmlns:xlink="http://www.w3.org/1999/xlink" version="1.1"><rect x="0" y="0" width="960" height="540" fill="#161618"></rect><path d="M0 339L40 347.8C80 356.7 160 374.3 240 376.2C320 378 400 364 480 361.8C560 359.7 640 369.3 720 361.8C800 354.3 880 329.7 920 317.3L960 305L960 541L920 541C880 541 800 541 720 541C640 541 560 541 480 541C400 541 320 541 240 541C160 541 80 541 40 541L0 541Z" fill="#e48716"></path><path d="M0 393L40 388.3C80 383.7 160 374.3 240 373.7C320 373 400 381 480 389.3C560 397.7 640 406.3 720 415.2C800 424 880 433 920 437.5L960 442L960 541L920 541C880 541 800 541 720 541C640 541 560 541 480 541C400 541 320 541 240 541C160 541 80 541 40 541L0 541Z" fill="#e76913"></path><path d="M0 502L40 493.3C80 484.7 160 467.3 240 457C320 446.7 400 443.3 480 452.3C560 461.3 640 482.7 720 484.3C800 486 880 468 920 459L960 450L960 541L920 541C880 541 800 541 720 541C640 541 560 541 480 541C400 541 320 541 240 541C160 541 80 541 40 541L0 541Z" fill="#e7451d"></path></svg>