<svg id="visual" viewBox="0 0 960 540" width="960" height="540" xmlns="http://www.w3.org/2000/svg" xmlns:xlink="http://www.w3.org/1999/xlink" version="1.1"><rect x="0" y="0" width="960" height="540" fill="#161618"></rect><path d="M0 402L53.3 416.2C106.7 430.3 213.3 458.7 320 467.2C426.7 475.7 533.3 464.3 640 448.5C746.7 432.7 853.3 412.3 906.7 402.2L960 392L960 541L906.7 541C853.3 541 746.7 541 640 541C533.3 541 426.7 541 320 541C213.3 541 106.7 541 53.3 541L0 541Z" fill="#e48716"></path><path d="M0 474L53.3 476C106.7 478 213.3 482 320 480.2C426.7 478.3 533.3 470.7 640 464C746.7 457.3 853.3 451.7 906.7 448.8L960 446L960 541L906.7 541C853.3 541 746.7 541 640 541C533.3 541 426.7 541 320 541C213.3 541 106.7 541 53.3 541L0 541Z" fill="#e76913"></path><path d="M0 520L53.3 517.7C106.7 515.3 213.3 510.7 320 507.3C426.7 504 533.3 502 640 496.7C746.7 491.3 853.3 482.7 906.7 478.3L960 474L960 541L906.7 541C853.3 541 746.7 541 640 541C533.3 541 426.7 541 320 541C213.3 541 106.7 541 53.3 541L0 541Z" fill="#e7451d"></path></svg>